<mxfile host="app.diagrams.net" modified="2022-01-22T02:25:43.374Z" agent="5.0 (X11; Linux x86_64) AppleWebKit/537.36 (KHTML, like Gecko) Chrome/97.0.4692.71 Safari/537.36" etag="eMtGFk3pQl2cMlwlFB-N" version="16.4.5" type="github">
  <diagram id="vMgmx5-RMhFzQGQkdN0Y" name="Page-1">
    <mxGraphModel dx="813" dy="418" grid="1" gridSize="10" guides="1" tooltips="1" connect="1" arrows="1" fold="1" page="1" pageScale="1" pageWidth="690" pageHeight="980" math="0" shadow="0">
      <root>
        <mxCell id="0" />
        <mxCell id="1" parent="0" />
        <mxCell id="s7zWPP-RedN-X8cKQtIf-2" value="" style="ellipse;html=1;shape=startState;fillColor=#000000;strokeColor=#ff0000;" vertex="1" parent="1">
          <mxGeometry x="330" y="40" width="30" height="30" as="geometry" />
        </mxCell>
        <mxCell id="s7zWPP-RedN-X8cKQtIf-3" value="" style="edgeStyle=orthogonalEdgeStyle;html=1;verticalAlign=bottom;endArrow=open;endSize=8;strokeColor=#ff0000;rounded=0;entryX=0.5;entryY=0;entryDx=0;entryDy=0;" edge="1" source="s7zWPP-RedN-X8cKQtIf-2" parent="1" target="s7zWPP-RedN-X8cKQtIf-5">
          <mxGeometry relative="1" as="geometry">
            <mxPoint x="345" y="130" as="targetPoint" />
          </mxGeometry>
        </mxCell>
        <mxCell id="s7zWPP-RedN-X8cKQtIf-5" value="Nhập a,b" style="rounded=1;whiteSpace=wrap;html=1;arcSize=40;fontColor=#000000;fillColor=#ffffc0;strokeColor=#ff0000;" vertex="1" parent="1">
          <mxGeometry x="285" y="130" width="120" height="40" as="geometry" />
        </mxCell>
        <mxCell id="s7zWPP-RedN-X8cKQtIf-6" value="" style="edgeStyle=orthogonalEdgeStyle;html=1;verticalAlign=bottom;endArrow=open;endSize=8;strokeColor=#ff0000;rounded=0;entryX=0.5;entryY=0;entryDx=0;entryDy=0;" edge="1" source="s7zWPP-RedN-X8cKQtIf-5" parent="1" target="s7zWPP-RedN-X8cKQtIf-10">
          <mxGeometry relative="1" as="geometry">
            <mxPoint x="345" y="230" as="targetPoint" />
          </mxGeometry>
        </mxCell>
        <mxCell id="s7zWPP-RedN-X8cKQtIf-10" value="a&amp;gt;b" style="rhombus;whiteSpace=wrap;html=1;fillColor=#ffffc0;strokeColor=#ff0000;" vertex="1" parent="1">
          <mxGeometry x="305" y="230" width="80" height="40" as="geometry" />
        </mxCell>
        <mxCell id="s7zWPP-RedN-X8cKQtIf-11" value="no" style="edgeStyle=orthogonalEdgeStyle;html=1;align=left;verticalAlign=bottom;endArrow=open;endSize=8;strokeColor=#ff0000;rounded=0;entryX=0.5;entryY=0;entryDx=0;entryDy=0;" edge="1" source="s7zWPP-RedN-X8cKQtIf-10" parent="1" target="s7zWPP-RedN-X8cKQtIf-17">
          <mxGeometry x="-1" y="18" relative="1" as="geometry">
            <mxPoint x="490" y="280" as="targetPoint" />
            <mxPoint x="-15" y="8" as="offset" />
          </mxGeometry>
        </mxCell>
        <mxCell id="s7zWPP-RedN-X8cKQtIf-12" value="yes" style="edgeStyle=orthogonalEdgeStyle;html=1;align=left;verticalAlign=top;endArrow=open;endSize=8;strokeColor=#ff0000;rounded=0;entryX=0.5;entryY=0;entryDx=0;entryDy=0;" edge="1" source="s7zWPP-RedN-X8cKQtIf-10" parent="1" target="s7zWPP-RedN-X8cKQtIf-13">
          <mxGeometry x="-0.9259" y="-30" relative="1" as="geometry">
            <mxPoint x="200" y="280" as="targetPoint" />
            <mxPoint as="offset" />
          </mxGeometry>
        </mxCell>
        <mxCell id="s7zWPP-RedN-X8cKQtIf-13" value="a lớn hơn b" style="rounded=1;whiteSpace=wrap;html=1;arcSize=40;fontColor=#000000;fillColor=#ffffc0;strokeColor=#ff0000;" vertex="1" parent="1">
          <mxGeometry x="140" y="280" width="120" height="40" as="geometry" />
        </mxCell>
        <mxCell id="s7zWPP-RedN-X8cKQtIf-17" value="Condition" style="rhombus;whiteSpace=wrap;html=1;fillColor=#ffffc0;strokeColor=#ff0000;" vertex="1" parent="1">
          <mxGeometry x="450" y="280" width="80" height="40" as="geometry" />
        </mxCell>
        <mxCell id="s7zWPP-RedN-X8cKQtIf-18" value="no" style="edgeStyle=orthogonalEdgeStyle;html=1;align=left;verticalAlign=bottom;endArrow=open;endSize=8;strokeColor=#ff0000;rounded=0;" edge="1" source="s7zWPP-RedN-X8cKQtIf-17" parent="1" target="s7zWPP-RedN-X8cKQtIf-22">
          <mxGeometry x="-1" y="36" relative="1" as="geometry">
            <mxPoint x="490" y="380" as="targetPoint" />
            <mxPoint x="-16" y="-30" as="offset" />
          </mxGeometry>
        </mxCell>
        <mxCell id="s7zWPP-RedN-X8cKQtIf-19" value="yes" style="edgeStyle=orthogonalEdgeStyle;html=1;align=left;verticalAlign=top;endArrow=open;endSize=8;strokeColor=#ff0000;rounded=0;" edge="1" source="s7zWPP-RedN-X8cKQtIf-17" parent="1" target="s7zWPP-RedN-X8cKQtIf-20">
          <mxGeometry x="-1" y="-30" relative="1" as="geometry">
            <mxPoint x="200" y="380" as="targetPoint" />
            <Array as="points">
              <mxPoint x="400" y="300" />
              <mxPoint x="400" y="340" />
              <mxPoint x="200" y="340" />
            </Array>
            <mxPoint as="offset" />
          </mxGeometry>
        </mxCell>
        <mxCell id="s7zWPP-RedN-X8cKQtIf-20" value="a nhỏ hơn b" style="rounded=1;whiteSpace=wrap;html=1;arcSize=40;fontColor=#000000;fillColor=#ffffc0;strokeColor=#ff0000;" vertex="1" parent="1">
          <mxGeometry x="140" y="380" width="120" height="40" as="geometry" />
        </mxCell>
        <mxCell id="s7zWPP-RedN-X8cKQtIf-22" value="a bằng b" style="rounded=1;whiteSpace=wrap;html=1;arcSize=40;fontColor=#000000;fillColor=#ffffc0;strokeColor=#ff0000;" vertex="1" parent="1">
          <mxGeometry x="430" y="380" width="120" height="40" as="geometry" />
        </mxCell>
        <mxCell id="s7zWPP-RedN-X8cKQtIf-27" value="" style="edgeStyle=orthogonalEdgeStyle;html=1;verticalAlign=bottom;endArrow=open;endSize=8;strokeColor=#ff0000;rounded=0;exitX=0.5;exitY=1;exitDx=0;exitDy=0;entryX=1;entryY=0.5;entryDx=0;entryDy=0;" edge="1" source="s7zWPP-RedN-X8cKQtIf-22" parent="1" target="s7zWPP-RedN-X8cKQtIf-30">
          <mxGeometry relative="1" as="geometry">
            <mxPoint x="450" y="480" as="targetPoint" />
            <mxPoint x="490" y="450" as="sourcePoint" />
            <Array as="points">
              <mxPoint x="490" y="485" />
            </Array>
          </mxGeometry>
        </mxCell>
        <mxCell id="s7zWPP-RedN-X8cKQtIf-29" value="" style="edgeStyle=orthogonalEdgeStyle;html=1;verticalAlign=bottom;endArrow=open;endSize=8;strokeColor=#ff0000;rounded=0;exitX=0.5;exitY=1;exitDx=0;exitDy=0;entryX=0;entryY=0.5;entryDx=0;entryDy=0;" edge="1" source="s7zWPP-RedN-X8cKQtIf-20" parent="1" target="s7zWPP-RedN-X8cKQtIf-30">
          <mxGeometry relative="1" as="geometry">
            <mxPoint x="240" y="480" as="targetPoint" />
            <mxPoint x="190" y="460" as="sourcePoint" />
            <Array as="points">
              <mxPoint x="200" y="485" />
            </Array>
          </mxGeometry>
        </mxCell>
        <mxCell id="s7zWPP-RedN-X8cKQtIf-30" value="" style="ellipse;html=1;shape=endState;fillColor=#000000;strokeColor=#ff0000;" vertex="1" parent="1">
          <mxGeometry x="330" y="470" width="30" height="30" as="geometry" />
        </mxCell>
      </root>
    </mxGraphModel>
  </diagram>
</mxfile>
